<svg width="71" height="71" viewBox="0 0 71 71" fill="none" xmlns="http://www.w3.org/2000/svg">
<rect x="0.165039" y="0.0307617" width="70" height="70" rx="10" fill="white"/>
<path d="M13.29 25.6558C12.8756 25.6558 12.4782 25.8204 12.1852 26.1134C11.8922 26.4064 11.7275 26.8039 11.7275 27.2183V42.8433C11.7275 43.2577 11.8922 43.6551 12.1852 43.9481C12.4782 44.2411 12.8756 44.4058 13.29 44.4058C13.7044 44.4058 14.1019 44.2411 14.3949 43.9481C14.6879 43.6551 14.8525 43.2577 14.8525 42.8433V27.2183C14.8525 26.8039 14.6879 26.4064 14.3949 26.1134C14.1019 25.8204 13.7044 25.6558 13.29 25.6558Z" fill="black"/>
<path d="M13.29 25.6558C12.8756 25.6558 12.4782 25.8204 12.1852 26.1134C11.8922 26.4064 11.7275 26.8039 11.7275 27.2183V42.8433C11.7275 43.2577 11.8922 43.6551 12.1852 43.9481C12.4782 44.2411 12.8756 44.4058 13.29 44.4058C13.7044 44.4058 14.1019 44.2411 14.3949 43.9481C14.6879 43.6551 14.8525 43.2577 14.8525 42.8433V27.2183C14.8525 26.8039 14.6879 26.4064 14.3949 26.1134C14.1019 25.8204 13.7044 25.6558 13.29 25.6558Z" fill="#9C6CC1"/>
<path d="M19.54 17.8433C19.1256 17.8433 18.7282 18.0079 18.4352 18.3009C18.1422 18.5939 17.9775 18.9914 17.9775 19.4058V50.6558C17.9775 51.0702 18.1422 51.4676 18.4352 51.7606C18.7282 52.0536 19.1256 52.2183 19.54 52.2183C19.9544 52.2183 20.3519 52.0536 20.6449 51.7606C20.9379 51.4676 21.1025 51.0702 21.1025 50.6558V19.4058C21.1025 18.9914 20.9379 18.5939 20.6449 18.3009C20.3519 18.0079 19.9544 17.8433 19.54 17.8433Z" fill="black"/>
<path d="M19.54 17.8433C19.1256 17.8433 18.7282 18.0079 18.4352 18.3009C18.1422 18.5939 17.9775 18.9914 17.9775 19.4058V50.6558C17.9775 51.0702 18.1422 51.4676 18.4352 51.7606C18.7282 52.0536 19.1256 52.2183 19.54 52.2183C19.9544 52.2183 20.3519 52.0536 20.6449 51.7606C20.9379 51.4676 21.1025 51.0702 21.1025 50.6558V19.4058C21.1025 18.9914 20.9379 18.5939 20.6449 18.3009C20.3519 18.0079 19.9544 17.8433 19.54 17.8433Z" fill="#9C6CC1"/>
<path d="M38.29 25.6558C37.8756 25.6558 37.4782 25.8204 37.1852 26.1134C36.8922 26.4064 36.7275 26.8039 36.7275 27.2183V42.8433C36.7275 43.2577 36.8922 43.6551 37.1852 43.9481C37.4782 44.2411 37.8756 44.4058 38.29 44.4058C38.7044 44.4058 39.1019 44.2411 39.3949 43.9481C39.6879 43.6551 39.8525 43.2577 39.8525 42.8433V27.2183C39.8525 26.8039 39.6879 26.4064 39.3949 26.1134C39.1019 25.8204 38.7044 25.6558 38.29 25.6558Z" fill="black"/>
<path d="M38.29 25.6558C37.8756 25.6558 37.4782 25.8204 37.1852 26.1134C36.8922 26.4064 36.7275 26.8039 36.7275 27.2183V42.8433C36.7275 43.2577 36.8922 43.6551 37.1852 43.9481C37.4782 44.2411 37.8756 44.4058 38.29 44.4058C38.7044 44.4058 39.1019 44.2411 39.3949 43.9481C39.6879 43.6551 39.8525 43.2577 39.8525 42.8433V27.2183C39.8525 26.8039 39.6879 26.4064 39.3949 26.1134C39.1019 25.8204 38.7044 25.6558 38.29 25.6558Z" fill="#9C6CC1"/>
<path d="M32.04 17.8433C31.6256 17.8433 31.2282 18.0079 30.9352 18.3009C30.6422 18.5939 30.4775 18.9914 30.4775 19.4058V50.6558C30.4775 51.0702 30.6422 51.4676 30.9352 51.7606C31.2282 52.0536 31.6256 52.2183 32.04 52.2183C32.4544 52.2183 32.8519 52.0536 33.1449 51.7606C33.4379 51.4676 33.6025 51.0702 33.6025 50.6558V19.4058C33.6025 18.9914 33.4379 18.5939 33.1449 18.3009C32.8519 18.0079 32.4544 17.8433 32.04 17.8433Z" fill="black"/>
<path d="M32.04 17.8433C31.6256 17.8433 31.2282 18.0079 30.9352 18.3009C30.6422 18.5939 30.4775 18.9914 30.4775 19.4058V50.6558C30.4775 51.0702 30.6422 51.4676 30.9352 51.7606C31.2282 52.0536 31.6256 52.2183 32.04 52.2183C32.4544 52.2183 32.8519 52.0536 33.1449 51.7606C33.4379 51.4676 33.6025 51.0702 33.6025 50.6558V19.4058C33.6025 18.9914 33.4379 18.5939 33.1449 18.3009C32.8519 18.0079 32.4544 17.8433 32.04 17.8433Z" fill="#9C6CC1"/>
<path d="M25.79 11.5933C25.3756 11.5933 24.9782 11.7579 24.6852 12.0509C24.3922 12.3439 24.2275 12.7414 24.2275 13.1558V56.9058C24.2275 57.3202 24.3922 57.7176 24.6852 58.0106C24.9782 58.3036 25.3756 58.4683 25.79 58.4683C26.2044 58.4683 26.6019 58.3036 26.8949 58.0106C27.1879 57.7176 27.3525 57.3202 27.3525 56.9058V13.1558C27.3525 12.7414 27.1879 12.3439 26.8949 12.0509C26.6019 11.7579 26.2044 11.5933 25.79 11.5933Z" fill="black"/>
<path d="M25.79 11.5933C25.3756 11.5933 24.9782 11.7579 24.6852 12.0509C24.3922 12.3439 24.2275 12.7414 24.2275 13.1558V56.9058C24.2275 57.3202 24.3922 57.7176 24.6852 58.0106C24.9782 58.3036 25.3756 58.4683 25.79 58.4683C26.2044 58.4683 26.6019 58.3036 26.8949 58.0106C27.1879 57.7176 27.3525 57.3202 27.3525 56.9058V13.1558C27.3525 12.7414 27.1879 12.3439 26.8949 12.0509C26.6019 11.7579 26.2044 11.5933 25.79 11.5933Z" fill="#9C6CC1"/>
<path d="M57.04 25.6558C56.6256 25.6558 56.2282 25.8204 55.9352 26.1134C55.6422 26.4064 55.4775 26.8039 55.4775 27.2183V42.8433C55.4775 43.2577 55.6422 43.6551 55.9352 43.9481C56.2282 44.2411 56.6256 44.4058 57.04 44.4058C57.4544 44.4058 57.8519 44.2411 58.1449 43.9481C58.4379 43.6551 58.6025 43.2577 58.6025 42.8433V27.2183C58.6025 26.8039 58.4379 26.4064 58.1449 26.1134C57.8519 25.8204 57.4544 25.6558 57.04 25.6558Z" fill="black"/>
<path d="M57.04 25.6558C56.6256 25.6558 56.2282 25.8204 55.9352 26.1134C55.6422 26.4064 55.4775 26.8039 55.4775 27.2183V42.8433C55.4775 43.2577 55.6422 43.6551 55.9352 43.9481C56.2282 44.2411 56.6256 44.4058 57.04 44.4058C57.4544 44.4058 57.8519 44.2411 58.1449 43.9481C58.4379 43.6551 58.6025 43.2577 58.6025 42.8433V27.2183C58.6025 26.8039 58.4379 26.4064 58.1449 26.1134C57.8519 25.8204 57.4544 25.6558 57.04 25.6558Z" fill="#9C6CC1"/>
<path d="M50.79 17.8433C50.3756 17.8433 49.9782 18.0079 49.6852 18.3009C49.3922 18.5939 49.2275 18.9914 49.2275 19.4058V50.6558C49.2275 51.0702 49.3922 51.4676 49.6852 51.7606C49.9782 52.0536 50.3756 52.2183 50.79 52.2183C51.2044 52.2183 51.6019 52.0536 51.8949 51.7606C52.1879 51.4676 52.3525 51.0702 52.3525 50.6558V19.4058C52.3525 18.9914 52.1879 18.5939 51.8949 18.3009C51.6019 18.0079 51.2044 17.8433 50.79 17.8433Z" fill="black"/>
<path d="M50.79 17.8433C50.3756 17.8433 49.9782 18.0079 49.6852 18.3009C49.3922 18.5939 49.2275 18.9914 49.2275 19.4058V50.6558C49.2275 51.0702 49.3922 51.4676 49.6852 51.7606C49.9782 52.0536 50.3756 52.2183 50.79 52.2183C51.2044 52.2183 51.6019 52.0536 51.8949 51.7606C52.1879 51.4676 52.3525 51.0702 52.3525 50.6558V19.4058C52.3525 18.9914 52.1879 18.5939 51.8949 18.3009C51.6019 18.0079 51.2044 17.8433 50.79 17.8433Z" fill="#9C6CC1"/>
<path d="M44.54 11.5933C44.1256 11.5933 43.7282 11.7579 43.4352 12.0509C43.1422 12.3439 42.9775 12.7414 42.9775 13.1558V56.9058C42.9775 57.3202 43.1422 57.7176 43.4352 58.0106C43.7282 58.3036 44.1256 58.4683 44.54 58.4683C44.9544 58.4683 45.3519 58.3036 45.6449 58.0106C45.9379 57.7176 46.1025 57.3202 46.1025 56.9058V13.1558C46.1025 12.7414 45.9379 12.3439 45.6449 12.0509C45.3519 11.7579 44.9544 11.5933 44.54 11.5933Z" fill="black"/>
<path d="M44.54 11.5933C44.1256 11.5933 43.7282 11.7579 43.4352 12.0509C43.1422 12.3439 42.9775 12.7414 42.9775 13.1558V56.9058C42.9775 57.3202 43.1422 57.7176 43.4352 58.0106C43.7282 58.3036 44.1256 58.4683 44.54 58.4683C44.9544 58.4683 45.3519 58.3036 45.6449 58.0106C45.9379 57.7176 46.1025 57.3202 46.1025 56.9058V13.1558C46.1025 12.7414 45.9379 12.3439 45.6449 12.0509C45.3519 11.7579 44.9544 11.5933 44.54 11.5933Z" fill="#9C6CC1"/>
</svg>
